Land_normalized_precision_landing06_filtered_grf
version=1
nRows=28
nColumns=37
inDegrees=yes
endheader
time		1_ground_force_vx		1_ground_force_vy		1_ground_force_vz		1_ground_force_px		1_ground_force_py		1_ground_force_pz		1_ground_torque_x		1_ground_torque_y		1_ground_torque_z		2_ground_force_vx		2_ground_force_vy		2_ground_force_vz		2_ground_force_px		2_ground_force_py		2_ground_force_pz		2_ground_torque_x		2_ground_torque_y		2_ground_torque_z		3_ground_force_vx		3_ground_force_vy		3_ground_force_vz		3_ground_force_px		3_ground_force_py		3_ground_force_pz		3_ground_torque_x		3_ground_torque_y		3_ground_torque_z		4_ground_force_vx		4_ground_force_vy		4_ground_force_vz		4_ground_force_px		4_ground_force_py		4_ground_force_pz		4_ground_torque_x		4_ground_torque_y		4_ground_torque_z		
1.238667		-7.638480		566.815247		120.996576		0.090210		0.000000		0.263559		-0.192569		14.289733		3.050389		22.755352		1000.594253		123.478773		-0.118219		0.000000		0.250176		0.590395		25.960970		3.203731		11.319812		-1.628493		-5.009805		0.381217		1.275831		1.884616		-0.009456		0.001360		0.004185		-5.857914		-0.623562		-0.391175		-0.351537		1.268343		1.872529		0.012552		0.001336		0.000838		
1.241571		-7.194677		559.546032		118.202897		0.090062		0.000000		0.263891		-0.183844		14.297976		3.020415		25.806561		996.520779		119.743505		-0.119112		0.000000		0.251448		0.661661		25.550201		3.070156		11.030714		-1.483693		-4.938578		0.381225		1.275828		1.884646		-0.007731		0.001040		0.003461		-5.784166		-0.622147		-0.389260		-0.351552		1.268349		1.872567		0.011798		0.001269		0.000794		
1.244475		-6.960346		551.919003		115.465224		0.089971		0.000000		0.264296		-0.180340		14.299951		2.991647		29.586038		991.623036		115.241031		-0.120088		0.000000		0.252868		0.748346		25.082099		2.914908		10.756520		-1.344492		-4.832570		0.381225		1.275818		1.884674		-0.006727		0.000841		0.003022		-5.716802		-0.615289		-0.417443		-0.351566		1.268353		1.872604		0.010682		0.001150		0.000780		
1.247379		-6.919928		544.067114		112.729133		0.089919		0.000000		0.264743		-0.181759		14.290439		2.960936		33.921789		986.278467		109.868364		-0.121176		0.000000		0.254472		0.842918		24.508257		2.730158		10.556099		-1.243528		-4.727879		0.381215		1.275804		1.884698		-0.006665		0.000786		0.002986		-5.681831		-0.608846		-0.472890		-0.351579		1.268358		1.872641		0.009635		0.001032		0.000802		
1.250283		-7.044272		536.022380		110.003529		0.089872		0.000000		0.265170		-0.187300		14.252289		2.924880		38.714800		980.828297		103.833021		-0.122409		0.000000		0.256259		0.941368		23.849829		2.524827		10.454107		-1.198928		-4.655253		0.381197		1.275791		1.884720		-0.007477		0.000857		0.003330		-5.694315		-0.599458		-0.542873		-0.351588		1.268366		1.872677		0.009109		0.000959		0.000869		
1.253187		-7.294707		527.778394		107.326141		0.089810		0.000000		0.265535		-0.195956		14.177564		2.883071		43.832047		975.452762		97.583794		-0.123785		0.000000		0.258170		1.041290		23.173674		2.318304		10.438078		-1.212259		-4.632244		0.381176		1.275782		1.884740		-0.008777		0.001019		0.003894		-5.752930		-0.577059		-0.610191		-0.351597		1.268380		1.872714		0.009490		0.000952		0.001007		
1.256091		-7.626950		519.332818		104.744999		0.089734		0.000000		0.265839		-0.206683		14.073381		2.838480		49.000302		970.107190		91.664614		-0.125244		0.000000		0.260100		1.139144		22.552966		2.131021		10.472150		-1.271713		-4.661646		0.381154		1.275778		1.884763		-0.009978		0.001212		0.004442		-5.841112		-0.531905		-0.660967		-0.351604		1.268398		1.872751		0.010994		0.001001		0.001244		
1.258995		-8.004268		510.709216		102.315759		0.089659		0.000000		0.266119		-0.218661		13.951532		2.795057		53.798453		964.549954		86.552652		-0.126677		0.000000		0.261925		1.229020		22.035052		1.977287		10.519338		-1.357743		-4.733376		0.381140		1.275781		1.884788		-0.010568		0.001364		0.004755		-5.932289		-0.461867		-0.691269		-0.351610		1.268418		1.872789		0.013500		0.001051		0.001573		
1.261899		-8.409027		501.945451		100.091525		0.089593		0.000000		0.266405		-0.231430		13.814342		2.754678		57.763294		958.464260		82.548048		-0.127959		0.000000		0.263529		1.303629		21.631141		1.862992		10.559481		-1.447755		-4.828655		0.381135		1.275787		1.884815		-0.010348		0.001419		0.004732		-5.997759		-0.376472		-0.708990		-0.351613		1.268435		1.872825		0.016446		0.001032		0.001944		
1.264803		-8.839981		493.092694		98.103298		0.089541		0.000000		0.266713		-0.244850		13.657615		2.717252		60.586703		951.647538		79.705867		-0.129006		0.000000		0.264853		1.357564		21.323558		1.785970		10.597349		-1.521005		-4.927341		0.381141		1.275794		1.884844		-0.009521		0.001366		0.004427		-6.017788		-0.294840		-0.728654		-0.351613		1.268447		1.872858		0.019015		0.000931		0.002303		
1.267707		-9.295405		484.203195		96.352743		0.089499		0.000000		0.267030		-0.258865		13.484375		2.683288		62.246512		944.161654		77.866063		-0.129799		0.000000		0.265897		1.390013		21.083873		1.738811		10.656390		-1.562803		-5.017079		0.381155		1.275797		1.884873		-0.008506		0.001247		0.004005		-5.990587		-0.236978		-0.761246		-0.351610		1.268448		1.872885		0.020528		0.000812		0.002609		
1.270611		-9.761891		475.324829		94.822456		0.089441		0.000000		0.267307		-0.273244		13.304730		2.654159		63.023927		936.412618		76.697235		-0.130388		0.000000		0.266724		1.405436		20.882037		1.710351		10.761023		-1.565904		-5.096392		0.381171		1.275796		1.884900		-0.007691		0.001120		0.003642		-5.933545		-0.214524		-0.807350		-0.351604		1.268438		1.872904		0.020735		0.000749		0.002822		
1.273515		-10.215291		466.501862		93.486098		0.089332		0.000000		0.267486		-0.287338		13.121870		2.629598		63.378765		929.131415		75.769343		-0.130857		0.000000		0.267437		1.411096		20.686633		1.686965		10.916033		-1.531205		-5.170400		0.381182		1.275791		1.884923		-0.007247		0.001017		0.003432		-5.874266		-0.225926		-0.856516		-0.351596		1.268420		1.872915		0.019896		0.000765		0.002901		
1.276419		-10.627912		457.789014		92.312432		0.089146		0.000000		0.267525		-0.300109		12.926976		2.606705		63.752661		923.275086		74.642401		-0.131296		0.000000		0.268142		1.412865		20.461327		1.654202		11.094307		-1.467888		-5.242100		0.381182		1.275782		1.884943		-0.007114		0.000941		0.003362		-5.837611		-0.259465		-0.891885		-0.351588		1.268397		1.872919		0.018618		0.000827		0.002844		
1.279323		-10.972333		449.262331		91.257040		0.088890		0.000000		0.267433		-0.310557		12.715779		2.582910		64.396871		919.823408		72.973533		-0.131753		0.000000		0.268921		1.411934		20.167627		1.599988		11.242232		-1.392201		-5.304966		0.381170		1.275771		1.884957		-0.007153		0.000886		0.003376		-5.835834		-0.301327		-0.898493		-0.351582		1.268373		1.872917		0.017541		0.000906		0.002700		
1.282227		-11.225432		441.025264		90.266763		0.088600		0.000000		0.267279		-0.318204		12.501632		2.558769		65.312620		919.576534		70.610884		-0.132236		0.000000		0.269801		1.404656		19.777071		1.518619		11.302906		-1.322760		-5.343653		0.381148		1.275758		1.884969		-0.007301		0.000854		0.003451		-5.865038		-0.343207		-0.869344		-0.351579		1.268354		1.872913		0.017021		0.000996		0.002523		
1.285131		-11.377910		433.183936		89.289530		0.088325		0.000000		0.267159		-0.323135		12.302507		2.535840		66.312222		922.974032		67.647377		-0.132707		0.000000		0.270752		1.385760		19.287887		1.413678		11.243221		-1.275361		-5.341823		0.381124		1.275746		1.884977		-0.007631		0.000866		0.003625		-5.906035		-0.383801		-0.806288		-0.351579		1.268338		1.872906		0.017001		0.001105		0.002321		
1.288035		-11.439819		425.806177		88.287823		0.088109		0.000000		0.267156		-0.325745		12.124682		2.513965		67.135291		929.981085		64.413152		-0.133116		0.000000		0.271695		1.352489		18.735147		1.297656		11.071519		-1.259013		-5.290937		0.381106		1.275736		1.884984		-0.008296		0.000944		0.003965		-5.930840		-0.425270		-0.717931		-0.351584		1.268328		1.872901		0.017134		0.001229		0.002074		
1.290939		-11.433693		418.888840		87.248997		0.087970		0.000000		0.267297		-0.326594		11.965209		2.492195		67.552267		940.086138		61.393517		-0.133418		0.000000		0.272532		1.306754		18.185323		1.187625		10.837059		-1.273706		-5.194174		0.381099		1.275728		1.884990		-0.009469		0.001113		0.004539		-5.915495		-0.466990		-0.616645		-0.351594		1.268319		1.872898		0.017079		0.001349		0.001780		
1.293843		-11.384226		412.343103		86.184429		0.087882		0.000000		0.267531		-0.326461		11.824602		2.471477		67.420103		952.360962		59.081980		-0.133590		0.000000		0.273179		1.254040		17.714200		1.098954		10.614309		-1.309658		-5.065393		0.381104		1.275724		1.884997		-0.011261		0.001389		0.005374		-5.853185		-0.501257		-0.516564		-0.351605		1.268312		1.872897		0.016744		0.001434		0.001478		
1.296747		-11.314153		406.019822		85.116150		0.087787		0.000000		0.267756		-0.326127		11.703404		2.453448		66.674579		965.651197		57.821073		-0.133629		0.000000		0.273585		1.199814		17.376857		1.040494		10.475931		-1.350350		-4.925203		0.381119		1.275724		1.885002		-0.013658		0.001761		0.006421		-5.758301		-0.516327		-0.431948		-0.351618		1.268308		1.872897		0.016294		0.001462		0.001223		
1.299652		-11.246466		399.760538		84.060276		0.087640		0.000000		0.267888		-0.326122		11.592149		2.437558		65.292050		978.771919		57.712372		-0.133549		0.000000		0.273744		1.146565		17.187696		1.013457		10.466087		-1.378633		-4.797165		0.381140		1.275727		1.885007		-0.016476		0.002171		0.007552		-5.660836		-0.504123		-0.375362		-0.351631		1.268307		1.872900		0.015986		0.001423		0.001060		
1.302556		-11.196074		393.439475		83.026080		0.087429		0.000000		0.267897		-0.326577		11.476188		2.421777		63.267289		990.672838		58.618268		-0.133374		0.000000		0.273685		1.093271		17.118994		1.012933		10.583529		-1.384105		-4.703173		0.381160		1.275733		1.885009		-0.019335		0.002529		0.008592		-5.594943		-0.465378		-0.354449		-0.351640		1.268312		1.872903		0.016021		0.001333		0.001015		
1.305460		-11.155096		386.985717		82.026798		0.087172		0.000000		0.267804		-0.327195		11.350834		2.405962		60.622113		1000.550574		60.256829		-0.133129		0.000000		0.273460		1.037256		17.119596		1.031005		10.783148		-1.368137		-4.656802		0.381174		1.275741		1.885008		-0.021678		0.002751		0.009362		-5.585381		-0.409584		-0.369260		-0.351649		1.268326		1.872906		0.016466		0.001208		0.001088		
1.308364		-11.086461		380.386288		81.083933		0.086885		0.000000		0.267664		-0.327104		11.223217		2.392365		57.443534		1007.914277		62.337700		-0.132842		0.000000		0.273122		0.977080		17.143980		1.060324		10.994636		-1.343049		-4.658284		0.381178		1.275749		1.885003		-0.022854		0.002792		0.009683		-5.636599		-0.351888		-0.411441		-0.351655		1.268344		1.872908		0.017208		0.001074		0.001256		
1.311268		-10.941011		373.667326		80.211224		0.086590		0.000000		0.267528		-0.324938		11.097578		2.382201		53.915246		1012.605867		64.681695		-0.132543		0.000000		0.272715		0.914602		17.177521		1.097240		11.152252		-1.324276		-4.696662		0.381172		1.275755		1.884995		-0.022273		0.002645		0.009380		-5.730300		-0.308583		-0.467164		-0.351659		1.268365		1.872907		0.017978		0.000968		0.001465		
1.314172		-10.680387		366.874613		79.395635		0.086307		0.000000		0.267422		-0.319387		10.971039		2.374252		50.312089		1014.742169		67.257272		-0.132261		0.000000		0.272270		0.854909		17.242645		1.142846		11.218908		-1.322499		-4.756878		0.381156		1.275758		1.884985		-0.019635		0.002315		0.008325		-5.833137		-0.293439		-0.523387		-0.351661		1.268385		1.872903		0.018457		0.000928		0.001656		
1.317076		-10.287789		360.059012		78.596094		0.086042		0.000000		0.267339		-0.309818		10.843239		2.366936		46.960242		1014.650279		70.121174		-0.132030		0.000000		0.271804		0.804567		17.383995		1.201388		11.193338		-1.340965		-4.825158		0.381133		1.275759		1.884974		-0.015166		0.001817		0.006538		-5.909105		-0.314480		-0.572589		-0.351663		1.268401		1.872894		0.018469		0.000983		0.001790		
